PathFileType	4	(X/Y/Z)	TVC_9_BWA1_walk_RCNL2025.trc
DataRate	CameraRate	NumFrames	NumMarkers	Units	OrigDataRate	OrigDataStartFrame	OrigNumFrames
100	100	8	27	mm	100	298	397
Frame#	Time	R_Shoulder			L_Shoulder			C7			J_Notch			R_Elbow			L_Elbow			R_Wrist			L_Wrist			R_Asis			L_Asis			R_Psis			L_Psis			Sacral			Thoracic			Sternum			R_Thigh_Lateral			R_Knee_Lateral			R_Shank_Lateral			R_Ankle_Lateral			R_Heel			R_Toe			L_Thigh_Lateral			L_Knee_Lateral			L_Shank_Lateral			L_Ankle_Lateral			L_Heel			L_Toe		
		X1	Y1	Z1	X2	Y2	Z2	X3	Y3	Z3	X4	Y4	Z4	X5	Y5	Z5	X6	Y6	Z6	X7	Y7	Z7	X8	Y8	Z8	X9	Y9	Z9	X10	Y10	Z10	X11	Y11	Z11	X12	Y12	Z12	X13	Y13	Z13	X14	Y14	Z14	X15	Y15	Z15	X16	Y16	Z16	X17	Y17	Z17	X18	Y18	Z18	X19	Y19	Z19	X20	Y20	Z20	X21	Y21	Z21	X22	Y22	Z22	X23	Y23	Z23	X24	Y24	Z24	X25	Y25	Z25	X26	Y26	Z26	X27	Y27	Z27
298	2.97000000	1066.840698	1363.626465	-199.055756	1015.647644	1366.798950	-585.121765	990.843079	1430.158203	-394.609650	1144.426270	1328.794800	-393.382172	1057.665771	1053.664185	-61.591820	945.133911	1033.134766	-649.730530	1216.959656	859.486023	-65.832264	1006.761810	795.063141	-666.774902	1085.457275	917.737732	-226.547287	1068.101807	920.345215	-529.844482	884.903198	944.552246	-315.361206	880.810364	943.667664	-416.359833	882.856781	944.109955	-365.860519	892.273865	1156.100220	-374.326813	1200.838501	1139.859985	-394.045105	1030.894897	521.830994	-134.359390	1004.556763	446.288300	-196.053040	901.986694	335.675110	-138.415131	718.103333	195.479630	-198.146606	673.998657	232.819672	-256.106781	767.892944	72.467812	-244.125854	1121.086670	562.702087	-560.973328	1129.569702	437.592957	-501.685883	1122.409302	292.155579	-543.718323	1085.031616	72.696114	-470.278015	1028.447144	49.280056	-413.906891	1220.974731	39.564983	-440.086700
299	2.98000000	1076.346191	1363.719604	-200.561844	1026.220215	1367.029419	-586.764404	1000.707703	1430.989990	-396.318542	1153.776245	1328.768799	-394.757751	1062.548462	1052.320312	-65.607758	959.740295	1033.010742	-653.189819	1213.104858	851.225922	-68.902491	1024.457886	795.870453	-671.671509	1093.060791	918.034973	-228.140625	1075.463745	921.109009	-531.575500	892.400330	945.406494	-317.183228	888.284424	944.892700	-417.921082	890.342377	945.149597	-367.552155	900.766663	1157.308472	-376.147675	1209.297974	1139.556396	-395.575958	1049.666382	521.483887	-136.698914	1024.761230	446.288177	-198.605728	922.053772	336.606873	-140.889709	734.609985	200.711685	-199.470154	690.132568	238.113205	-257.077118	783.874451	77.536903	-245.311661	1126.146729	563.081177	-561.999084	1132.418579	437.239105	-502.443237	1124.131714	291.762756	-544.179810	1085.084961	72.642830	-470.329071	1028.471191	49.419643	-413.868622	1220.892090	39.567036	-440.140839
300	2.99000000	1085.547974	1363.844727	-201.943665	1036.595947	1367.359863	-588.274475	1010.342285	1431.796509	-397.925354	1162.963379	1328.793213	-396.024109	1067.191895	1051.056030	-69.645325	974.375488	1033.027100	-656.605957	1208.704102	843.427643	-72.049526	1042.283386	796.894836	-676.571381	1100.521484	918.366882	-229.570312	1082.614746	921.831116	-533.386414	899.791870	946.341553	-318.904602	895.669250	946.095886	-419.355560	897.730560	946.218719	-369.130081	909.130493	1158.526733	-377.928986	1217.621216	1139.292847	-396.890228	1067.973145	521.596863	-139.190750	1044.880005	446.779419	-201.320404	942.292847	337.733276	-143.528244	752.103149	205.104416	-200.988403	706.966492	242.133820	-258.277130	802.004944	82.478165	-246.517380	1131.268433	563.422729	-562.884399	1135.163330	436.906250	-503.103394	1125.805908	291.394684	-544.588074	1085.135254	72.602852	-470.380280	1028.488281	49.563736	-413.834351	1220.806885	39.554729	-440.176422
301	3.00000000	1094.445190	1364.006104	-203.203140	1046.732910	1367.787354	-589.653503	1019.741943	1432.571655	-399.416565	1171.991699	1328.882690	-397.184448	1071.536865	1049.888184	-73.685776	988.997009	1033.182983	-659.977478	1203.821533	836.180847	-75.265194	1060.210022	798.149811	-681.463379	1107.855591	918.726318	-230.864670	1089.591553	922.505920	-535.269165	907.112366	947.339111	-320.515961	902.993469	947.281250	-420.689178	905.052917	947.310181	-370.602570	917.381470	1159.745605	-379.660797	1225.838989	1139.095947	-397.998566	1085.782104	522.157898	-141.819702	1064.839478	447.742676	-204.171799	962.595093	339.049164	-146.276230	770.536560	208.530746	-202.675293	724.505615	244.773407	-259.720459	822.153137	87.083534	-247.666077	1136.357178	563.700256	-563.640747	1137.813843	436.598083	-503.668945	1127.437744	291.051239	-544.940369	1085.190674	72.575951	-470.429779	1028.501221	49.708843	-413.805511	1220.729004	39.529293	-440.192627
302	3.01000000	1103.044189	1364.206299	-204.344284	1056.602173	1368.301636	-590.910583	1028.914795	1433.314697	-400.786804	1180.866943	1329.045776	-398.242615	1075.527100	1048.836060	-77.706688	1003.566589	1033.472778	-663.304688	1198.529602	829.561829	-78.539900	1078.211365	799.644592	-686.335358	1115.077148	919.110840	-232.052963	1096.445923	923.138428	-537.195496	914.392639	948.377502	-322.014771	910.282532	948.453064	-421.950806	912.337585	948.415283	-371.982788	925.535767	1160.953491	-381.334167	1233.977905	1138.986084	-398.921906	1103.120239	523.137268	-144.564163	1084.583740	449.134155	-207.133453	982.890320	340.518799	-149.079803	789.859619	210.898697	-204.493240	742.762878	245.969254	-261.402985	844.136292	91.166824	-248.692154	1141.332520	563.900085	-564.283264	1140.374512	436.317230	-504.145599	1129.027588	290.732880	-545.238159	1085.253662	72.560326	-470.475525	1028.509277	49.849922	-413.783783	1220.663452	39.495064	-440.190308
303	3.02000000	1111.357056	1364.446167	-205.372925	1066.189575	1368.886963	-592.059570	1037.879028	1434.028198	-402.038391	1189.596313	1329.283813	-399.202667	1079.115234	1047.921875	-81.682716	1018.050964	1033.887207	-666.588745	1192.906006	823.629913	-81.863338	1096.262634	801.384613	-691.174591	1122.202393	919.522339	-233.163055	1103.240356	923.741028	-539.121216	921.658386	949.433167	-323.405670	917.557739	949.614258	-423.168488	919.608063	949.523712	-373.287079	933.608887	1162.136475	-382.942078	1242.058350	1138.975586	-399.689514	1120.051147	524.494507	-147.397614	1104.066895	450.894928	-210.178406	1003.141541	342.083618	-151.890152	810.022705	212.153763	-206.396317	761.751770	245.701996	-263.299988	867.741760	94.579025	-249.553848	1146.138428	564.018921	-564.828613	1142.846313	436.063690	-504.541870	1130.572021	290.439728	-545.486877	1085.322388	72.553093	-470.515503	1028.510254	49.981941	-413.770599	1220.611694	39.457073	-440.171875
304	3.03000000	1119.400269	1364.725708	-206.296387	1075.494995	1369.524170	-593.117004	1046.658936	1434.715820	-403.179596	1198.188477	1329.590332	-400.068604	1082.269287	1047.169922	-85.586723	1032.421387	1034.415283	-669.830505	1187.029358	818.424835	-85.225187	1114.341431	803.372253	-695.968170	1129.252930	919.965576	-234.219452	1110.041382	924.328430	-540.993164	928.929199	950.482971	-324.700134	924.835449	950.764526	-424.366638	926.882324	950.623749	-374.533386	941.615112	1163.279785	-384.480499	1250.093262	1139.066406	-400.336273	1136.648438	526.184265	-150.290527	1123.247681	452.959229	-213.279495	1023.335083	343.672516	-154.666916	830.981140	212.277267	-208.336060	781.481018	243.990662	-265.368134	892.748291	97.218826	-250.241913	1150.746948	564.060669	-565.293640	1145.228271	435.834229	-504.868530	1132.064941	290.170715	-545.694824	1085.392822	72.551247	-470.548309	1028.501587	50.101460	-413.767059	1220.572754	39.419716	-440.140778
305	3.04000000	1127.193237	1365.043579	-207.123337	1084.531250	1370.193604	-594.099304	1055.280273	1435.379761	-404.223175	1206.653076	1329.952515	-400.844269	1084.975586	1046.604980	-89.390984	1046.653687	1035.044922	-673.030701	1180.976562	813.965820	-88.615639	1132.426941	805.607300	-700.703247	1136.256348	920.446167	-235.242096	1116.913208	924.912292	-542.757263	936.218262	951.505676	-325.915131	932.127136	951.899597	-425.564240	934.172699	951.702637	-375.739685	949.566589	1164.367920	-385.948761	1258.088135	1139.250854	-400.898682	1152.973145	528.158997	-153.212494	1142.084595	455.260651	-216.409729	1043.468384	345.212189	-157.380280	852.696777	211.281631	-210.268738	801.951904	240.886475	-267.552155	918.943054	99.037216	-250.781891	1155.156494	564.033508	-565.694580	1147.521484	435.622833	-505.137939	1133.500488	289.923401	-545.872620	1085.460815	72.552559	-470.573181	1028.482300	50.207920	-413.773773	1220.545288	39.386055	-440.101440
